<svg width="201" height="32" viewBox="0 0 201 32" fill="none" xmlns="http://www.w3.org/2000/svg">
<path d="M49.408 21L45.344 16.024V21H43.104V9.832H45.344V14.84L49.408 9.832H52.112L47.504 15.368L52.24 21H49.408ZM53.1374 16.536C53.1374 15.64 53.3134 14.8453 53.6654 14.152C54.028 13.4587 54.5134 12.9253 55.1214 12.552C55.74 12.1787 56.428 11.992 57.1854 11.992C57.8467 11.992 58.4227 12.1253 58.9134 12.392C59.4147 12.6587 59.8147 12.9947 60.1134 13.4V12.136H62.3694V21H60.1134V19.704C59.8254 20.12 59.4254 20.4667 58.9134 20.744C58.412 21.0107 57.8307 21.144 57.1694 21.144C56.4227 21.144 55.74 20.952 55.1214 20.568C54.5134 20.184 54.028 19.6453 53.6654 18.952C53.3134 18.248 53.1374 17.4427 53.1374 16.536ZM60.1134 16.568C60.1134 16.024 60.0067 15.56 59.7934 15.176C59.58 14.7813 59.292 14.4827 58.9294 14.28C58.5667 14.0667 58.1774 13.96 57.7614 13.96C57.3454 13.96 56.9614 14.0613 56.6094 14.264C56.2574 14.4667 55.9694 14.7653 55.7454 15.16C55.532 15.544 55.4254 16.0027 55.4254 16.536C55.4254 17.0693 55.532 17.5387 55.7454 17.944C55.9694 18.3387 56.2574 18.6427 56.6094 18.856C56.972 19.0693 57.356 19.176 57.7614 19.176C58.1774 19.176 58.5667 19.0747 58.9294 18.872C59.292 18.6587 59.58 18.36 59.7934 17.976C60.0067 17.5813 60.1134 17.112 60.1134 16.568ZM66.7971 13.512C67.0851 13.0427 67.4585 12.6747 67.9171 12.408C68.3865 12.1413 68.9198 12.008 69.5171 12.008V14.36H68.9251C68.2211 14.36 67.6878 14.5253 67.3251 14.856C66.9731 15.1867 66.7971 15.7627 66.7971 16.584V21H64.5571V12.136H66.7971V13.512ZM72.1619 11.08C71.7672 11.08 71.4365 10.9573 71.1699 10.712C70.9139 10.456 70.7859 10.1413 70.7859 9.768C70.7859 9.39467 70.9139 9.08533 71.1699 8.84C71.4365 8.584 71.7672 8.456 72.1619 8.456C72.5565 8.456 72.8819 8.584 73.1379 8.84C73.4045 9.08533 73.5379 9.39467 73.5379 9.768C73.5379 10.1413 73.4045 10.456 73.1379 10.712C72.8819 10.9573 72.5565 11.08 72.1619 11.08ZM73.2659 12.136V21H71.0259V12.136H73.2659ZM77.719 13.512C78.007 13.0427 78.3803 12.6747 78.839 12.408C79.3083 12.1413 79.8417 12.008 80.439 12.008V14.36H79.847C79.143 14.36 78.6097 14.5253 78.247 14.856C77.895 15.1867 77.719 15.7627 77.719 16.584V21H75.479V12.136H77.719V13.512ZM93.5363 13.192C93.2803 12.7227 92.9283 12.3653 92.4803 12.12C92.0323 11.8747 91.5096 11.752 90.9123 11.752C90.2509 11.752 89.6643 11.9013 89.1523 12.2C88.6403 12.4987 88.2403 12.9253 87.9523 13.48C87.6643 14.0347 87.5203 14.6747 87.5203 15.4C87.5203 16.1467 87.6643 16.7973 87.9523 17.352C88.2509 17.9067 88.6616 18.3333 89.1843 18.632C89.7069 18.9307 90.3149 19.08 91.0083 19.08C91.8616 19.08 92.5603 18.856 93.1042 18.408C93.6483 17.9493 94.0056 17.3147 94.1763 16.504H90.3363V14.792H96.3843V16.744C96.2349 17.5227 95.9149 18.2427 95.4243 18.904C94.9336 19.5653 94.2989 20.0987 93.5203 20.504C92.7523 20.8987 91.8883 21.096 90.9283 21.096C89.8509 21.096 88.8749 20.856 88.0003 20.376C87.1363 19.8853 86.4536 19.208 85.9523 18.344C85.4616 17.48 85.2163 16.4987 85.2163 15.4C85.2163 14.3013 85.4616 13.32 85.9523 12.456C86.4536 11.5813 87.1363 10.904 88.0003 10.424C88.8749 9.93333 89.8456 9.688 90.9123 9.688C92.1709 9.688 93.2643 9.99733 94.1923 10.616C95.1203 11.224 95.7603 12.0827 96.1123 13.192H93.5363ZM106.282 16.376C106.282 16.696 106.26 16.984 106.218 17.24H99.7375C99.7908 17.88 100.015 18.3813 100.41 18.744C100.804 19.1067 101.29 19.288 101.866 19.288C102.698 19.288 103.29 18.9307 103.642 18.216H106.058C105.802 19.0693 105.311 19.7733 104.586 20.328C103.86 20.872 102.97 21.144 101.914 21.144C101.06 21.144 100.292 20.9573 99.6095 20.584C98.9375 20.2 98.4095 19.6613 98.0255 18.968C97.6522 18.2747 97.4655 17.4747 97.4655 16.568C97.4655 15.6507 97.6522 14.8453 98.0255 14.152C98.3988 13.4587 98.9215 12.9253 99.5935 12.552C100.266 12.1787 101.039 11.992 101.914 11.992C102.756 11.992 103.508 12.1733 104.17 12.536C104.842 12.8987 105.359 13.416 105.722 14.088C106.095 14.7493 106.282 15.512 106.282 16.376ZM103.962 15.736C103.951 15.16 103.743 14.7013 103.338 14.36C102.932 14.008 102.436 13.832 101.85 13.832C101.295 13.832 100.826 14.0027 100.442 14.344C100.068 14.6747 99.8388 15.1387 99.7535 15.736H103.962ZM118.925 12.008C120.013 12.008 120.887 12.344 121.549 13.016C122.221 13.6773 122.557 14.6053 122.557 15.8V21H120.317V16.104C120.317 15.4107 120.141 14.8827 119.789 14.52C119.437 14.1467 118.957 13.96 118.349 13.96C117.741 13.96 117.255 14.1467 116.893 14.52C116.541 14.8827 116.365 15.4107 116.365 16.104V21H114.125V16.104C114.125 15.4107 113.949 14.8827 113.597 14.52C113.245 14.1467 112.765 13.96 112.157 13.96C111.538 13.96 111.047 14.1467 110.685 14.52C110.333 14.8827 110.157 15.4107 110.157 16.104V21H107.917V12.136H110.157V13.208C110.445 12.8347 110.813 12.5413 111.261 12.328C111.719 12.1147 112.221 12.008 112.765 12.008C113.458 12.008 114.077 12.1573 114.621 12.456C115.165 12.744 115.586 13.16 115.885 13.704C116.173 13.192 116.589 12.7813 117.133 12.472C117.687 12.1627 118.285 12.008 118.925 12.008ZM125.818 11.08C125.423 11.08 125.093 10.9573 124.826 10.712C124.57 10.456 124.442 10.1413 124.442 9.768C124.442 9.39467 124.57 9.08533 124.826 8.84C125.093 8.584 125.423 8.456 125.818 8.456C126.213 8.456 126.538 8.584 126.794 8.84C127.061 9.08533 127.194 9.39467 127.194 9.768C127.194 10.1413 127.061 10.456 126.794 10.712C126.538 10.9573 126.213 11.08 125.818 11.08ZM126.922 12.136V21H124.682V12.136H126.922ZM131.375 9.16V21H129.135V9.16H131.375ZM133.012 16.536C133.012 15.64 133.188 14.8453 133.54 14.152C133.903 13.4587 134.388 12.9253 134.996 12.552C135.615 12.1787 136.303 11.992 137.06 11.992C137.722 11.992 138.298 12.1253 138.788 12.392C139.29 12.6587 139.69 12.9947 139.988 13.4V12.136H142.244V21H139.988V19.704C139.7 20.12 139.3 20.4667 138.788 20.744C138.287 21.0107 137.706 21.144 137.044 21.144C136.298 21.144 135.615 20.952 134.996 20.568C134.388 20.184 133.903 19.6453 133.54 18.952C133.188 18.248 133.012 17.4427 133.012 16.536ZM139.988 16.568C139.988 16.024 139.882 15.56 139.668 15.176C139.455 14.7813 139.167 14.4827 138.804 14.28C138.442 14.0667 138.052 13.96 137.636 13.96C137.22 13.96 136.836 14.0613 136.484 14.264C136.132 14.4667 135.844 14.7653 135.62 15.16C135.407 15.544 135.3 16.0027 135.3 16.536C135.3 17.0693 135.407 17.5387 135.62 17.944C135.844 18.3387 136.132 18.6427 136.484 18.856C136.847 19.0693 137.231 19.176 137.636 19.176C138.052 19.176 138.442 19.0747 138.804 18.872C139.167 18.6587 139.455 18.36 139.668 17.976C139.882 17.5813 139.988 17.112 139.988 16.568ZM149.344 12.008C150.4 12.008 151.253 12.344 151.904 13.016C152.555 13.6773 152.88 14.6053 152.88 15.8V21H150.64V16.104C150.64 15.4 150.464 14.8613 150.112 14.488C149.76 14.104 149.28 13.912 148.672 13.912C148.053 13.912 147.563 14.104 147.2 14.488C146.848 14.8613 146.672 15.4 146.672 16.104V21H144.432V12.136H146.672V13.24C146.971 12.856 147.349 12.5573 147.808 12.344C148.277 12.12 148.789 12.008 149.344 12.008ZM158.482 11.992C159.144 11.992 159.725 12.1253 160.226 12.392C160.728 12.648 161.122 12.984 161.41 13.4V12.136H163.666V21.064C163.666 21.8853 163.501 22.616 163.17 23.256C162.84 23.9067 162.344 24.4187 161.682 24.792C161.021 25.176 160.221 25.368 159.282 25.368C158.024 25.368 156.989 25.0747 156.178 24.488C155.378 23.9013 154.925 23.1013 154.818 22.088H157.042C157.16 22.4933 157.41 22.8133 157.794 23.048C158.189 23.2933 158.664 23.416 159.218 23.416C159.869 23.416 160.397 23.2187 160.802 22.824C161.208 22.44 161.41 21.8533 161.41 21.064V19.688C161.122 20.104 160.722 20.4507 160.21 20.728C159.709 21.0053 159.133 21.144 158.482 21.144C157.736 21.144 157.053 20.952 156.434 20.568C155.816 20.184 155.325 19.6453 154.962 18.952C154.61 18.248 154.434 17.4427 154.434 16.536C154.434 15.64 154.61 14.8453 154.962 14.152C155.325 13.4587 155.81 12.9253 156.418 12.552C157.037 12.1787 157.725 11.992 158.482 11.992ZM161.41 16.568C161.41 16.024 161.304 15.56 161.09 15.176C160.877 14.7813 160.589 14.4827 160.226 14.28C159.864 14.0667 159.474 13.96 159.058 13.96C158.642 13.96 158.258 14.0613 157.906 14.264C157.554 14.4667 157.266 14.7653 157.042 15.16C156.829 15.544 156.722 16.0027 156.722 16.536C156.722 17.0693 156.829 17.5387 157.042 17.944C157.266 18.3387 157.554 18.6427 157.906 18.856C158.269 19.0693 158.653 19.176 159.058 19.176C159.474 19.176 159.864 19.0747 160.226 18.872C160.589 18.6587 160.877 18.36 161.09 17.976C161.304 17.5813 161.41 17.112 161.41 16.568Z" fill="black"/>
<rect width="31.7617" height="31.7617" rx="7" fill="#FFE767"/>
<path d="M16.4785 23.3607V15.2859L24.5533 23.3607H16.4785Z" fill="black"/>
<path d="M16.4784 7.21119L24.5532 7.21119L16.4784 15.286L16.4784 7.21119Z" fill="black"/>
<path d="M7 15.4879L15.1757 7.27113L15.1757 23.7046L7 15.4879Z" fill="black"/>
<rect x="20.7371" y="12.4598" width="4.03739" height="4.03739" transform="rotate(45 20.7371 12.4598)" fill="black"/>
</svg>
